<svg width="349" height="273" viewBox="0 0 349 273" fill="none" xmlns="http://www.w3.org/2000/svg">
<path d="M198.123 247.05L302.153 171.356L302.875 194.662L198.893 271.909L198.123 247.05Z" fill="#3958FF"/>
<path d="M194.437 128.037L193.84 108.771L302.153 171.356L287.264 182.704L194.437 128.037Z" fill="#273CAD"/>
<path d="M179.864 119.468L193.84 108.771L302.153 171.356L287.264 182.704L179.864 119.468Z" fill="#5771FF"/>
<path d="M180.637 134.374L180.175 119.459C215.35 140.453 286.137 181.27 286.944 182.403C287.594 183.316 279.85 187.703 275.687 190.527L180.637 134.374Z" fill="#2D43BA"/>
<path d="M179.754 236.422L198.114 246.739L198.874 271.288L180.476 259.727L179.754 236.422Z" fill="#2D43BA"/>
<path d="M198.123 247.05L179.754 236.422L271.4 172.62L287.565 182.384L198.123 247.05Z" fill="#5771FF"/>
<path d="M149.25 246.514L45.7368 170.115L44.8566 193.415L148.311 271.368L149.25 246.514Z" fill="#3958FF"/>
<path d="M153.745 127.529L154.473 108.268L45.7368 170.115L60.5487 181.564L153.745 127.529Z" fill="#273CAD"/>
<path d="M168.376 119.06L154.473 108.268L45.7368 170.115L60.5487 181.564L168.376 119.06Z" fill="#5771FF"/>
<path d="M167.502 133.96L168.065 119.048C132.748 139.802 61.6854 180.138 60.8711 181.265C60.2145 182.173 67.9283 186.613 72.0723 189.466L167.502 133.96Z" fill="#2D43BA"/>
<path d="M167.691 236.011L149.262 246.204L148.335 270.746L166.811 259.311L167.691 236.011Z" fill="#2D43BA"/>
<path d="M149.25 246.514L167.691 236.011L76.481 171.588L60.2497 181.241L149.25 246.514Z" fill="#5771FF"/>
<path d="M207.01 196.422L345.004 96.0154L345.962 126.93L208.031 229.397L207.01 196.422Z" fill="#3958FF"/>
<path d="M202.121 38.5533L201.329 12.9976L345.004 96.0154L325.254 111.068L202.121 38.5533Z" fill="#273CAD"/>
<path d="M182.79 27.1871L201.329 12.9976L345.004 96.0154L325.254 111.068L182.79 27.1871Z" fill="#5771FF"/>
<path d="M183.815 46.9594L183.202 27.1743C229.861 55.0226 323.759 109.166 324.829 110.668C325.691 111.879 315.419 117.698 309.897 121.445L183.815 46.9594Z" fill="#2D43BA"/>
<path d="M182.644 182.323L206.997 196.01L208.006 228.572L183.601 213.238L182.644 182.323Z" fill="#2D43BA"/>
<path d="M207.01 196.422L182.644 182.323L304.21 97.6914L325.653 110.643L207.01 196.422Z" fill="#5771FF"/>
<path d="M142.181 195.711L4.87274 94.3692L3.70516 125.276L140.936 228.678L142.181 195.711Z" fill="#3958FF"/>
<path d="M148.144 37.8794L149.109 12.3297L4.87273 94.3691L24.5204 109.555L148.144 37.8794Z" fill="#273CAD"/>
<path d="M167.551 26.645L149.109 12.3298L4.87269 94.3692L24.5204 109.555L167.551 26.645Z" fill="#5771FF"/>
<path d="M166.392 46.4098L167.139 26.6294C120.292 54.1599 26.0282 107.664 24.948 109.159C24.0771 110.364 34.3092 116.253 39.8062 120.037L166.392 46.4098Z" fill="#2D43BA"/>
<path d="M166.643 181.779L142.197 195.299L140.967 227.854L165.475 212.685L166.643 181.779Z" fill="#2D43BA"/>
<path d="M142.181 195.711L166.643 181.778L45.6543 96.3224L24.1238 109.127L142.181 195.711Z" fill="#5771FF"/>
<path d="M140.211 99.2826L176.115 82.4772L210.192 103.484L174.289 121.34L140.211 99.2826Z" fill="#5771FF"/>
<path d="M140.211 136.044V99.2826L174.289 121.34V159.152L140.211 136.044Z" fill="#3958FF"/>
<path d="M174.289 159.152V121.34C186.054 115.388 209.706 103.484 210.192 103.484C210.679 103.484 209.584 128.692 209.584 142.346L174.289 159.152Z" fill="#2D43BA"/>
</svg>
